<svg width="142" height="142" viewBox="0 0 142 142" fill="none" xmlns="http://www.w3.org/2000/svg">
<g filter="url(#filter0_d_1_9346)">
<path d="M16 63C16 32.6243 40.6243 8 71 8C101.376 8 126 32.6243 126 63C126 93.3757 101.376 118 71 118C40.6243 118 16 93.3757 16 63Z" fill="#3A3A3A"/>
</g>
<g filter="url(#filter1_i_1_9346)">
<path fill-rule="evenodd" clip-rule="evenodd" d="M43.2127 30.7154C36.9535 35.0685 26.3928 46.0529 24.515 62.2338C22.0634 83.3592 36.7729 107.457 62.3545 111.385C82.8198 114.527 98.3109 102.574 103.498 96.2044C115.01 80.9176 113.731 68.2849 113.731 68.2849C113.731 68.2849 112.558 74.7604 108.082 78.5822C102.585 83.2749 98.7017 83.3593 97.849 83.3593C95.5395 81.4838 89.5989 76.6925 83.8857 73.805C76.7441 70.1956 66.1917 64.1446 66.5115 58.1999C66.8341 52.2033 72.5871 49.6011 82.7132 50.3442C83.033 50.3677 80.5814 54.8026 78.1298 56.8197C82.429 57.3859 92.2637 58.943 95.9304 61.9154C99.5971 64.8878 98.7372 67.4002 97.849 68.2849C98.9504 68.3556 101.729 68.1362 104.031 66.6925C106.334 65.2487 107.478 63.5432 107.762 62.8708C106.838 63.2601 104.799 63.7201 104.031 62.4462C103.264 61.1723 103.427 59.9338 103.605 59.4738C100.407 59.0845 94.3102 57.5842 95.504 54.6967C96.9963 51.0873 101.26 50.9811 102.646 51.4058C104.031 51.8304 106.696 52.892 107.016 58.6245C107.028 58.8438 107.314 58.6318 107.806 58.2665C108.948 57.4199 111.199 55.7495 113.731 56.7137C115.543 57.4037 115.259 61.3138 113.731 62.4462C115.543 62.0923 120.233 59.686 121.405 53.9536C121.492 53.5296 121.076 53.4781 120.251 53.3761C118.851 53.2027 116.273 52.8837 112.985 50.3442C108.806 47.117 107.62 46.1687 107.549 46.0979L107.762 42.17C107.328 41.8937 106.861 41.5972 106.369 41.2851C102.388 38.76 96.798 35.2134 94.3315 33.0405C91.8009 30.8111 86.4438 24.4416 84.9516 11.9151C84.6652 9.51115 83.6725 25.1848 87.0205 31.7666C87.6774 33.0581 73.5901 20.7262 71.7781 15.206C71.7093 14.9964 72.9069 23.0616 78.4496 30.3865C79.0004 31.1144 78.0893 30.9956 76.1669 30.7449C72.2017 30.2277 63.9341 29.1493 55.3195 33.7836C40.7167 41.6393 39.5442 55.8644 40.7167 62.4462C41.5677 67.2233 43.2749 73.9112 52.1218 82.6162C54.0053 84.4694 48.6044 89.3041 39.4376 83.3593C34.1081 79.903 28.2457 74.3358 29.3116 59.4738C30.4387 43.7572 40.0384 33.2296 43.2127 30.7154ZM96.7831 40.8961L104.031 44.2931L101.366 45.8855C100.834 45.1424 99.5971 43.4863 98.9149 42.8069C98.2327 42.1275 97.2094 41.2499 96.7831 40.8961Z" fill="url(#paint0_linear_1_9346)"/>
</g>
<mask id="mask0_1_9346" style="mask-type:alpha" maskUnits="userSpaceOnUse" x="24" y="11" width="98" height="101">
<path fill-rule="evenodd" clip-rule="evenodd" d="M43.2127 30.7154C36.9535 35.0685 26.3928 46.0529 24.515 62.2338C22.0634 83.3592 36.7729 107.457 62.3545 111.385C82.8198 114.527 98.3109 102.574 103.498 96.2044C115.01 80.9176 113.731 68.2849 113.731 68.2849C113.731 68.2849 112.558 74.7604 108.082 78.5822C102.585 83.2749 98.7017 83.3593 97.849 83.3593C95.5395 81.4838 89.5989 76.6925 83.8857 73.805C76.7441 70.1956 66.1917 64.1446 66.5115 58.1999C66.8341 52.2033 72.5871 49.6011 82.7132 50.3442C83.033 50.3677 80.5814 54.8026 78.1298 56.8197C82.429 57.3859 92.2637 58.943 95.9304 61.9154C99.5971 64.8878 98.7372 67.4002 97.849 68.2849C98.9504 68.3556 101.729 68.1362 104.031 66.6925C106.334 65.2487 107.478 63.5432 107.762 62.8708C106.838 63.2601 104.799 63.7201 104.031 62.4462C103.264 61.1723 103.427 59.9338 103.605 59.4738C100.407 59.0845 94.3102 57.5842 95.504 54.6967C96.9963 51.0873 101.26 50.9811 102.646 51.4058C104.031 51.8304 106.696 52.892 107.016 58.6245C107.028 58.8438 107.314 58.6318 107.806 58.2665C108.948 57.4199 111.199 55.7495 113.731 56.7137C115.543 57.4037 115.259 61.3138 113.731 62.4462C115.543 62.0923 120.233 59.686 121.405 53.9536C121.492 53.5296 121.076 53.4781 120.251 53.3761C118.851 53.2027 116.273 52.8837 112.985 50.3442C108.806 47.117 107.62 46.1687 107.549 46.0979L107.762 42.17C107.328 41.8937 106.861 41.5972 106.369 41.2851C102.388 38.76 96.798 35.2134 94.3315 33.0405C91.8009 30.8111 86.4438 24.4416 84.9516 11.9151C84.6652 9.51115 83.6725 25.1848 87.0205 31.7666C87.6774 33.0581 73.5901 20.7262 71.7781 15.206C71.7093 14.9964 72.9069 23.0616 78.4496 30.3865C79.0004 31.1144 78.0893 30.9956 76.1669 30.7449C72.2017 30.2277 63.9341 29.1493 55.3195 33.7836C40.7167 41.6393 39.5442 55.8644 40.7167 62.4462C41.5677 67.2233 43.2749 73.9112 52.1218 82.6162C54.0053 84.4694 48.6044 89.3041 39.4376 83.3593C34.1081 79.903 28.2457 74.3358 29.3116 59.4738C30.4387 43.7572 40.0384 33.2296 43.2127 30.7154ZM96.7831 40.8961L104.031 44.2931L101.366 45.8855C100.834 45.1424 99.5971 43.4863 98.9149 42.8069C98.2327 42.1275 97.2094 41.2499 96.7831 40.8961Z" fill="url(#paint1_linear_1_9346)"/>
</mask>
<g mask="url(#mask0_1_9346)">
<path d="M69.4702 48.7507C74.3388 47.982 80.0941 49.4209 82.9165 50.1666C81.0832 52 67.1418 52.4792 67.0359 57.5926C66.949 61.7944 71.9611 67.1425 79.2073 70.6957C91.5904 76.7679 96.459 81.5617 98.1524 83.0532C105.004 89.0877 104.029 95.5368 104.029 95.5368C104.029 95.5368 101.262 99.7759 95.3348 103.719C89.4078 107.663 84.2915 109.292 84.2915 109.292C84.2915 109.292 95.6122 100.098 81.6416 88.8058C75.2744 83.6593 56.7696 70.8023 56.9813 61.5342C57.1735 53.1206 64.0725 49.6029 69.4702 48.7507Z" fill="url(#paint2_linear_1_9346)"/>
<path d="M102.387 88.393C100.792 85.4583 98.4971 83.913 97.5835 83.1666C98.7894 83.1666 104.251 82.3153 109.074 77.6239C112.015 74.7635 113.307 70.2668 113.746 67.921C113.855 70.2668 114.227 74.2119 112.473 79.6497C110.639 85.3353 107.537 91.5917 104.029 95.5368C104.029 93.4043 103.689 90.7887 102.387 88.393Z" fill="url(#paint3_linear_1_9346)"/>
<g filter="url(#filter2_i_1_9346)">
<path d="M62.7881 91.8169C60.1408 89.3327 54.2516 84.6504 51.75 82.25C51.4284 89.4512 30.3201 85.357 29.4453 63.7534C28.6948 45.2209 38.7727 34.8427 44.1333 30.0772C37.0573 34.4191 24.9424 47.9743 24.2991 63.7534C23.7211 77.9325 28.266 89.2753 36.8429 97.8532C45.9493 106.961 56.912 110.684 62.0939 111.39C64.0237 110.861 67.1248 107.278 68.0415 103.254C69.1753 98.2768 64.9324 93.829 62.7881 91.8169Z" fill="url(#paint4_linear_1_9346)"/>
</g>
</g>
<defs>
<filter id="filter0_d_1_9346" x="0" y="0" width="142" height="142" filterUnits="userSpaceOnUse" color-interpolation-filters="sRGB">
<feFlood flood-opacity="0" result="BackgroundImageFix"/>
<feColorMatrix in="SourceAlpha" type="matrix" values="0 0 0 0 0 0 0 0 0 0 0 0 0 0 0 0 0 0 127 0" result="hardAlpha"/>
<feOffset dy="8"/>
<feGaussianBlur stdDeviation="8"/>
<feComposite in2="hardAlpha" operator="out"/>
<feColorMatrix type="matrix" values="0 0 0 0 0 0 0 0 0 0 0 0 0 0 0 0 0 0 0.36 0"/>
<feBlend mode="normal" in2="BackgroundImageFix" result="effect1_dropShadow_1_9346"/>
<feBlend mode="normal" in="SourceGraphic" in2="effect1_dropShadow_1_9346" result="shape"/>
</filter>
<filter id="filter1_i_1_9346" x="24.25" y="9.66666" width="97.1665" height="102.235" filterUnits="userSpaceOnUse" color-interpolation-filters="sRGB">
<feFlood flood-opacity="0" result="BackgroundImageFix"/>
<feBlend mode="normal" in="SourceGraphic" in2="BackgroundImageFix" result="shape"/>
<feColorMatrix in="SourceAlpha" type="matrix" values="0 0 0 0 0 0 0 0 0 0 0 0 0 0 0 0 0 0 127 0" result="hardAlpha"/>
<feOffset dy="-2"/>
<feGaussianBlur stdDeviation="2"/>
<feComposite in2="hardAlpha" operator="arithmetic" k2="-1" k3="1"/>
<feColorMatrix type="matrix" values="0 0 0 0 0.980392 0 0 0 0 0.898039 0 0 0 0 0.623529 0 0 0 1 0"/>
<feBlend mode="normal" in2="shape" result="effect1_innerShadow_1_9346"/>
</filter>
<filter id="filter2_i_1_9346" x="24.25" y="28.0772" width="43.9805" height="83.3131" filterUnits="userSpaceOnUse" color-interpolation-filters="sRGB">
<feFlood flood-opacity="0" result="BackgroundImageFix"/>
<feBlend mode="normal" in="SourceGraphic" in2="BackgroundImageFix" result="shape"/>
<feColorMatrix in="SourceAlpha" type="matrix" values="0 0 0 0 0 0 0 0 0 0 0 0 0 0 0 0 0 0 127 0" result="hardAlpha"/>
<feOffset dy="-2"/>
<feGaussianBlur stdDeviation="2"/>
<feComposite in2="hardAlpha" operator="arithmetic" k2="-1" k3="1"/>
<feColorMatrix type="matrix" values="0 0 0 0 0.980392 0 0 0 0 0.898039 0 0 0 0 0.623529 0 0 0 1 0"/>
<feBlend mode="normal" in2="shape" result="effect1_innerShadow_1_9346"/>
</filter>
<linearGradient id="paint0_linear_1_9346" x1="72.8333" y1="11.6667" x2="72.8333" y2="111.902" gradientUnits="userSpaceOnUse">
<stop stop-color="#D9AC4F"/>
<stop offset="1" stop-color="#8F5206"/>
</linearGradient>
<linearGradient id="paint1_linear_1_9346" x1="72.8333" y1="11.6667" x2="72.8333" y2="111.902" gradientUnits="userSpaceOnUse">
<stop stop-color="#FF736D"/>
<stop offset="1" stop-color="#F73E46"/>
</linearGradient>
<linearGradient id="paint2_linear_1_9346" x1="80.4833" y1="48.4526" x2="80.4833" y2="108.833" gradientUnits="userSpaceOnUse">
<stop stop-color="#8F5206"/>
<stop offset="1" stop-color="#D9AC4F"/>
</linearGradient>
<linearGradient id="paint3_linear_1_9346" x1="114.337" y1="69.3071" x2="104.092" y2="94.5663" gradientUnits="userSpaceOnUse">
<stop stop-color="#D9AC4F"/>
<stop offset="1" stop-color="#8F5206"/>
</linearGradient>
<linearGradient id="paint4_linear_1_9346" x1="46.2404" y1="30.0772" x2="46.2404" y2="110.879" gradientUnits="userSpaceOnUse">
<stop offset="0.111391" stop-color="#D9AC4F"/>
<stop offset="1" stop-color="#8F5206"/>
</linearGradient>
</defs>
</svg>
