<svg xmlns="http://www.w3.org/2000/svg" width="32" height="32" viewBox="0 0 32 32" fill="none">
  <path d="M15.9993 4V28C11.3327 28 7.86502 21.8927 7.86502 21.8927H3.99935C3.26297 21.8927 2.66602 21.2958 2.66602 20.5594V11.3405C2.66602 10.6041 3.26297 10.0072 3.99935 10.0072H7.86502C7.86502 10.0072 11.3327 4 15.9993 4Z" fill="#07DDD1" stroke="#07DDD1" stroke-width="1.8" stroke-linejoin="round"/>
  <path d="M21.9334 9.32869C21.5627 8.99762 20.9937 9.02979 20.6627 9.40054C20.3316 9.77129 20.3638 10.3402 20.7345 10.6713L21.9334 9.32869ZM22.4567 11.2392L23.1835 10.7084L23.1835 10.7084L22.4567 11.2392ZM22.4819 20.7262L23.2115 21.2532L23.2115 21.2531L22.4819 20.7262ZM20.7345 21.3287C20.3638 21.6598 20.3316 22.2287 20.6627 22.5995C20.9938 22.9702 21.5627 23.0024 21.9334 22.6713L20.7345 21.3287ZM20.7345 10.6713C21.1026 11 21.4365 11.3683 21.7299 11.77L23.1835 10.7084C22.8156 10.2046 22.3963 9.74204 21.9334 9.32869L20.7345 10.6713ZM21.7299 11.77C22.59 12.9475 23.1007 14.4105 23.1007 16H24.9007C24.9007 14.0193 24.263 12.1863 23.1835 10.7084L21.7299 11.77ZM23.1007 16C23.1007 17.5758 22.5987 19.0271 21.7522 20.1993L23.2115 21.2531C24.2739 19.7819 24.9007 17.9636 24.9007 16H23.1007ZM21.7523 20.1992C21.4535 20.6129 21.112 20.9917 20.7345 21.3287L21.9334 22.6713C22.4081 22.2474 22.8369 21.7718 23.2115 21.2532L21.7523 20.1992Z" fill="#07DDD1"/>
  <path d="M22.3629 26.684C21.9361 26.9387 21.7967 27.4912 22.0514 27.918C22.3062 28.3449 22.8587 28.4843 23.2855 28.2296L22.3629 26.684ZM23.4785 3.88696C23.0558 3.62546 22.5011 3.75615 22.2396 4.17886C21.9781 4.60157 22.1088 5.15623 22.5315 5.41773L23.4785 3.88696ZM23.2855 28.2296C27.4448 25.747 30.2336 21.1994 30.2336 15.9996H28.4336C28.4336 20.5398 26.0006 24.5127 22.3629 26.684L23.2855 28.2296ZM30.2336 15.9996C30.2336 10.8807 27.5307 6.39374 23.4785 3.88696L22.5315 5.41773C26.0756 7.61021 28.4336 11.5299 28.4336 15.9996H30.2336Z" fill="#07DDD1"/>
</svg>